Coordinates
version=1
nRows=15
nColumns=34
inDegrees=yes

Units are S.I. units (second, meters, Newtons, ...)
If the header above contains a line with 'inDegrees', this indicates whether rotational values are in degrees (yes) or radians (no).

endheader
time	pelvis_tilt	pelvis_list	pelvis_rotation	pelvis_tx	pelvis_ty	pelvis_tz	hip_flexion_r	hip_adduction_r	hip_rotation_r	knee_angle_r	ankle_angle_r	subtalar_angle_r	mtp_angle_r	hip_flexion_l	hip_adduction_l	hip_rotation_l	knee_angle_l	ankle_angle_l	subtalar_angle_l	mtp_angle_l	lumbar_extension	lumbar_bending	lumbar_rotation	arm_flex_r	arm_add_r	arm_rot_r	elbow_flex_r	pro_sup_r	arm_flex_l	arm_add_l	arm_rot_l	elbow_flex_l	pro_sup_l
      1.45000000	    -17.85091046	      2.26522900	     -6.12636452	     -0.03085365	      1.29863321	     -0.04168758	     22.33115188	      0.22110129	      4.45823832	     15.20122348	     11.75972235	    -11.89446611	      0.00000000	     21.15307198	     -5.47240582	     -1.93597771	     13.52594886	      5.53900614	    -11.86992530	      0.00000000	      5.85330525	      0.48442197	      3.68311031	      5.45443108	      2.99529121	    -13.57318087	     63.07023914	    100.20094252	      4.03512502	    -15.27932171	     -3.61505998	     58.22998078	     96.15546162
      1.46666670	    -17.34946527	      2.15372770	     -5.83000364	     -0.02665279	      1.30145710	     -0.04217130	     22.07477646	      0.11557295	      4.25211930	     16.04073586	     11.99458273	    -11.99978116	      0.00000000	     20.25569679	     -5.53183468	     -2.41186161	     13.06625165	      4.58233307	    -12.25709234	      0.00000000	      5.54586758	      0.36277237	      4.55414087	      1.99270868	      2.47577167	    -17.10628020	     55.01753679	    100.46298376	      4.64571567	    -15.65490591	     -2.51591661	     57.29448314	     95.94550919
      1.48333330	    -16.89990473	      2.00264345	     -5.57763941	     -0.02417598	      1.30127612	     -0.04385886	     21.83902817	      0.05251268	      3.71919819	     16.85442896	     12.43464847	    -11.73960262	      0.00000000	     19.53749829	     -5.54242164	     -2.76110851	     12.57312462	      4.19042054	    -11.94968634	      0.00000000	      5.35916771	      0.39587869	      5.38245205	      0.25167075	      1.92637719	    -20.04729976	     46.02574621	    101.08200503	      4.83786842	    -15.93053691	     -1.42832023	     56.31213918	     95.68320008
      1.50000000	    -16.33300887	      1.91107079	     -5.29661022	     -0.02221052	      1.30062539	     -0.04438792	     21.42940947	     -0.06260875	      3.29831461	     17.45635804	     12.85976287	    -11.82147479	      0.00000000	     18.53908680	     -5.45442891	     -3.16362063	     12.03508156	      3.82545159	    -11.67588728	      0.00000000	      5.17717663	      0.49829906	      5.92343143	     -0.17977063	      1.29965949	    -21.93559028	     37.59053642	    101.85792609	      4.66720620	    -16.30043877	     -0.68054612	     55.41464217	     95.26195538
      1.51666670	    -15.90369514	      1.72799237	     -5.00211043	     -0.01989217	      1.30126175	     -0.04670560	     21.01063270	     -0.13913055	      2.78940038	     17.75253037	     13.24507835	    -11.46044759	      0.00000000	     17.62929241	     -5.42353038	     -3.42404750	     11.30830790	      3.71340488	    -11.02466515	      0.00000000	      5.29857413	      0.72601355	      5.94659073	      0.18970812	      0.50623062	    -22.60403698	     30.89259057	    102.76315321	      3.96497911	    -16.54261944	     -0.45384304	     54.51612891	     94.49204207
      1.53333330	    -15.30783234	      1.47763963	     -4.88997682	     -0.01660916	      1.30013709	     -0.04748228	     20.31261707	     -0.09146925	      2.42152875	     17.97092522	     13.45077565	    -11.57704309	      0.00000000	     16.50457935	     -5.48676463	     -3.52585319	     10.68128056	      4.04222092	    -10.34835138	      0.00000000	      5.01641793	      1.02285220	      6.47537537	      0.46520021	     -0.37700290	    -22.74913770	     26.87945211	    103.09916963	      3.60318837	    -16.34191407	     -0.79671502	     53.81245522	     93.91589861
      1.55000000	    -14.82719273	      1.38244368	     -4.51808068	     -0.01316302	      1.29895935	     -0.05071161	     19.64267908	     -0.27779621	      2.01552925	     18.22866633	     13.65976240	    -11.88054234	      0.00000000	     15.53983169	     -5.35786159	     -3.98196297	     10.15000991	      3.61679245	    -10.48331441	      0.00000000	      5.27469726	      1.22385280	      5.84407876	      1.21415780	     -1.08656138	    -22.12410260	     23.97544005	    103.28332958	      2.66639259	    -16.31702124	     -1.05285765	     52.22657671	     93.03907167
      1.56666670	    -14.43191838	      1.41995640	     -4.32458477	     -0.01384262	      1.30073849	     -0.05316548	     19.08876145	     -0.57311665	      1.64628232	     18.30600610	     14.16029155	    -11.19193310	      0.00000000	     14.82931309	     -5.11012927	     -4.30020111	      9.63161163	      3.51169605	    -10.04686448	      0.00000000	      5.32499439	      1.23690744	      5.69699754	      2.16251639	     -1.65544822	    -21.27199698	     23.24552446	    103.23167845	      2.12798169	    -16.10122249	     -1.45999275	     50.98643352	     92.33544556
      1.58333330	    -14.26972417	      1.43558236	     -3.88669279	     -0.01485271	      1.29490462	     -0.05495968	     18.85818539	     -0.82675575	      1.34989673	     18.63423125	     14.52385764	    -11.60434798	      0.00000000	     14.49256965	     -4.82970141	     -4.51265058	      9.38675692	      3.44064628	     -9.98419125	      0.00000000	      5.56421476	      1.17602027	      5.60467747	      2.83593183	     -2.11201610	    -20.96377225	     23.43263092	    103.15212010	      1.90073960	    -16.03892335	     -1.63752653	     50.26904433	     92.09067976
      1.60000000	    -13.98841820	      1.35034225	     -3.51619727	     -0.01385397	      1.29996601	     -0.05606190	     18.39248699	     -0.96012676	      1.04774486	     18.43884663	     14.77694034	    -11.39313067	      0.00000000	     14.02956854	     -4.69120711	     -4.44864273	      8.79443608	      3.56668196	     -9.45983946	      0.00000000	      5.47550179	      1.22192488	      5.21960484	      3.71018848	     -2.75771693	    -20.04314112	     23.44364552	    102.89877896	      1.93206471	    -15.64337874	     -2.27044898	     47.88948139	     91.40219213
      1.61666670	    -13.80383157	      1.30619310	     -3.18658581	     -0.01263224	      1.30173578	     -0.05588315	     17.96859823	     -1.07359693	      0.90187958	     18.18600965	     14.99333350	    -11.34369297	      0.00000000	     13.65497056	     -4.55329017	     -4.16863174	      8.43656638	      3.93576404	     -8.72983792	      0.00000000	      5.45198767	      1.08319600	      4.98718600	      4.18726227	     -3.17708230	    -19.05913124	     23.65711906	    102.55200194	      1.86051075	    -15.44813211	     -2.76210585	     45.97345815	     90.72129150
      1.63333330	    -13.63590688	      1.17865403	     -2.82074994	     -0.00983971	      1.30246115	     -0.05785735	     17.33946197	     -1.06589850	      0.80231473	     17.72261470	     15.01322864	    -11.53838111	      0.00000000	     13.22154347	     -4.54002122	     -4.14662681	      7.94974238	      3.88343899	     -8.37642217	      0.00000000	      5.31335786	      1.01688977	      4.76380459	      4.54899407	     -3.52127895	    -18.37358972	     23.87511442	    102.22770518	      1.62887084	    -15.34741303	     -3.10863809	     44.33393098	     90.20372529
      1.65000000	    -13.49904371	      1.13578496	     -2.43840146	     -0.01069238	      1.30261169	     -0.05903590	     16.80765521	     -1.08720330	      0.71354994	     17.17239331	     15.17472194	    -11.41817001	      0.00000000	     12.96038141	     -4.45079093	     -4.05020505	      7.47998503	      3.78642193	     -8.12736805	      0.00000000	      5.21022824	      0.83468004	      4.45056040	      4.78999805	     -3.90122228	    -17.80592004	     24.23023253	    101.86753210	      1.35065549	    -15.24042440	     -3.44365535	     42.65493882	     89.70840654
      1.66666670	    -13.40473306	      1.05358121	     -2.11170168	     -0.00852628	      1.30365269	     -0.06121949	     16.14636343	     -1.11830394	      0.66476186	     16.42718964	     15.17311479	    -11.32959120	      0.00000000	     12.69256889	     -4.40173155	     -4.11186779	      7.00668116	      3.66695653	     -7.76447449	      0.00000000	      5.08084708	      0.73747531	      4.14412211	      4.94510962	     -4.32389928	    -17.22300647	     24.29185990	    101.48170432	      1.11210117	    -15.02659785	     -3.75706963	     40.70788888	     89.19366121
      1.68333330	    -13.19782434	      1.05066233	     -1.82175173	     -0.00734139	      1.30995418	     -0.06155326	     15.19756962	     -1.18493077	      0.63646553	     15.24800579	     14.88495685	    -11.01493729	      0.00000000	     12.22088074	     -4.28504934	     -4.22583133	      6.48680879	      3.31797877	     -7.33707997	      0.00000000	      4.92044290	      0.53343870	      3.99143704	      4.71735581	     -4.78086349	    -16.61836975	     23.58438450	    101.03049238	      0.94455574	    -14.69621867	     -3.95033572	     38.42742072	     88.63679161
